<svg width="77" height="77" viewBox="0 0 77 77" fill="none" xmlns="http://www.w3.org/2000/svg">
<path d="M22.6406 0C10.2129 0 0 10.1992 0 22.6406V54.3594C0 66.7871 10.1992 77 22.6406 77H54.3594C66.7871 77 77 66.8008 77 54.3594V22.6406C77 10.2129 66.8008 0 54.3594 0H22.6406ZM22.6406 7H54.3594C63.0137 7 70 13.9863 70 22.6406V54.3594C70 63.0137 63.0137 70 54.3594 70H22.6406C13.9863 70 7 63.0137 7 54.3594V22.6406C7 13.9863 13.9863 7 22.6406 7ZM59.1719 14.6562C57.4082 14.6562 56 16.0645 56 17.8281C56 19.5918 57.4082 21 59.1719 21C60.9355 21 62.3438 19.5918 62.3438 17.8281C62.3438 16.0645 60.9355 14.6562 59.1719 14.6562ZM38.5 17.5C26.9473 17.5 17.5 26.9473 17.5 38.5C17.5 50.0527 26.9473 59.5 38.5 59.5C50.0527 59.5 59.5 50.0527 59.5 38.5C59.5 26.9473 50.0527 17.5 38.5 17.5ZM38.5 24.5C46.2793 24.5 52.5 30.7207 52.5 38.5C52.5 46.2793 46.2793 52.5 38.5 52.5C30.7207 52.5 24.5 46.2793 24.5 38.5C24.5 30.7207 30.7207 24.5 38.5 24.5Z" fill="white"/>
</svg>
