<svg width="196" height="196" viewBox="0 0 196 196" fill="none" xmlns="http://www.w3.org/2000/svg">
<path d="M138.833 73.0672C135.828 74.3738 132.602 75.2722 129.213 75.6642C132.675 73.6225 135.321 70.3885 136.579 66.542C133.329 68.4285 129.752 69.8087 125.93 70.5437C124.353 68.8905 122.455 67.576 120.353 66.6802C118.251 65.7844 115.989 65.3261 113.704 65.3333C104.452 65.3333 96.9545 72.7242 96.9545 81.83C96.9545 83.1203 97.1015 84.378 97.3873 85.5867C90.7505 85.2715 84.2522 83.5764 78.3071 80.6095C72.362 77.6425 67.1006 73.469 62.8587 68.355C61.3688 70.863 60.5843 73.727 60.5883 76.6442C60.5883 82.3608 63.5528 87.4242 68.0445 90.3723C65.3858 90.289 62.784 89.5812 60.4495 88.3062V88.5103C60.4747 92.3443 61.828 96.0509 64.279 98.9992C66.7299 101.948 70.127 103.955 73.8918 104.68C71.4203 105.334 68.8341 105.429 66.3213 104.958C67.4167 108.256 69.5118 111.132 72.3159 113.185C75.1199 115.238 78.4936 116.367 81.9687 116.416C76.0067 121.01 68.6867 123.492 61.16 123.472C59.8125 123.472 58.4813 123.39 57.1665 123.243C64.847 128.105 73.7527 130.68 82.8425 130.667C113.663 130.667 130.511 105.53 130.511 83.7247L130.454 81.585C133.74 79.2761 136.579 76.3901 138.833 73.0672V73.0672Z" fill="white"/>
<path d="M49.0002 32.6666C44.6683 32.6666 40.5138 34.3875 37.4507 37.4506C34.3877 40.5137 32.6668 44.6681 32.6668 49V147C32.6668 151.332 34.3877 155.486 37.4507 158.549C40.5138 161.612 44.6683 163.333 49.0002 163.333H147C151.332 163.333 155.486 161.612 158.55 158.549C161.613 155.486 163.333 151.332 163.333 147V49C163.333 44.6681 161.613 40.5137 158.55 37.4506C155.486 34.3875 151.332 32.6666 147 32.6666H49.0002ZM49.0002 16.3333H147C155.664 16.3333 163.973 19.775 170.099 25.9012C176.225 32.0273 179.667 40.3362 179.667 49V147C179.667 155.664 176.225 163.973 170.099 170.099C163.973 176.225 155.664 179.667 147 179.667H49.0002C40.3364 179.667 32.0275 176.225 25.9013 170.099C19.7752 163.973 16.3335 155.664 16.3335 147V49C16.3335 40.3362 19.7752 32.0273 25.9013 25.9012C32.0275 19.775 40.3364 16.3333 49.0002 16.3333V16.3333Z" fill="white"/>
</svg>
